<?xml version="1.0" standalone="no"?>
<!DOCTYPE svg PUBLIC "-//W3C//DTD SVG 20010904//EN"
 "http://www.w3.org/TR/2001/REC-SVG-20010904/DTD/svg10.dtd">
<svg version="1.0" xmlns="http://www.w3.org/2000/svg"
 width="499.000000pt" height="500.000000pt" viewBox="0 0 499.000000 500.000000"
 preserveAspectRatio="xMidYMid meet">

<g transform="translate(0.000000,500.000000) scale(0.100000,-0.100000)"
fill="#000000" stroke="none">
<path d="M1380 3290 c-99 -121 -180 -224 -180 -230 0 -5 6 -10 13 -11 75 -3
743 3 749 7 7 4 -92 130 -165 209 -10 11 -62 71 -115 132 -53 62 -102 113
-109 113 -7 0 -93 -99 -193 -220z"/>
<path d="M2448 3483 c-61 -67 -338 -413 -338 -422 0 -8 115 -11 370 -11 204 0
373 0 378 -1 27 -1 -3 43 -109 166 -67 77 -145 167 -173 199 -68 79 -84 96
-94 96 -5 0 -20 -12 -34 -27z"/>
<path d="M3290 3393 c-52 -64 -118 -144 -145 -177 -83 -100 -115 -143 -115
-155 0 -15 746 -16 755 -1 5 8 -152 201 -195 240 -3 3 -45 51 -94 108 -48 56
-93 102 -100 102 -6 0 -54 -53 -106 -117z"/>
</g>
</svg>
